grf
version=1
nRows=9
nColumns=37
inDegrees=no
endheader
time	ground_force_1_vx	ground_force_1_vy	ground_force_1_vz	ground_force_1_px	ground_force_1_py	ground_force_1_pz	ground_moment_1_mx	ground_moment_1_my	ground_moment_1_mz	ground_force_2_vx	ground_force_2_vy	ground_force_2_vz	ground_force_2_px	ground_force_2_py	ground_force_2_pz	ground_moment_2_mx	ground_moment_2_my	ground_moment_2_mz	ground_force_3_vx	ground_force_3_vy	ground_force_3_vz	ground_force_3_px	ground_force_3_py	ground_force_3_pz	ground_moment_3_mx	ground_moment_3_my	ground_moment_3_mz	ground_force_4_vx	ground_force_4_vy	ground_force_4_vz	ground_force_4_px	ground_force_4_py	ground_force_4_pz	ground_moment_4_mx	ground_moment_4_my	ground_moment_4_mz
      2.07000000	      0.00000000	     -0.00000000	      0.00000000	      0.00000000	      0.00000000	      0.00000000	      0.00000000	      0.00000000	      0.00000000	      1.84146237	     58.57773972	   -392.39520264	   -330.11627402	  -1115.89051008	      0.00000000	      0.00000000	      0.00000000	   1624.92234119	      4.38156943	    -59.52881661	   -433.03817749	   -338.03288740	   -678.45199616	      0.00000000	      0.00000000	     -0.00000000	  -2642.47155128	      0.00000000	     -0.00000000	      0.00000000	      0.00000000	      0.00000000	      0.00000000	      0.00000000	      0.00000000	      0.00000000
      2.08000000	      0.00000000	     -0.00000000	      0.00000000	      0.00000000	      0.00000000	      0.00000000	      0.00000000	      0.00000000	      0.00000000	      1.96263123	     58.59107208	   -391.74075317	   -330.51414160	  -1115.40200518	      0.00000000	      0.00000000	      0.00000000	   1590.26106868	      4.38164668	    -59.49085655	   -433.57128906	   -338.90150358	   -678.10736252	      0.00000000	      0.00000000	     -0.00000000	  -2607.45231436	      0.00000000	     -0.00000000	      0.00000000	      0.00000000	      0.00000000	      0.00000000	      0.00000000	      0.00000000	      0.00000000
      2.09000000	      0.00000000	     -0.00000000	      0.00000000	      0.00000000	      0.00000000	      0.00000000	      0.00000000	      0.00000000	      0.00000000	      2.03062773	     58.07544327	   -393.73071289	   -330.33721270	  -1116.35116489	      0.00000000	      0.00000000	      0.00000000	   1465.46621035	      4.31193882	    -59.33331718	   -433.84637451	   -338.64148828	   -678.27469074	      0.00000000	      0.00000000	     -0.00000000	  -2588.76635891	      0.00000000	     -0.00000000	      0.00000000	      0.00000000	      0.00000000	      0.00000000	      0.00000000	      0.00000000	      0.00000000
      2.10000000	      0.00000000	     -0.00000000	      0.00000000	      0.00000000	      0.00000000	      0.00000000	      0.00000000	      0.00000000	      0.00000000	      2.60366726	     58.34518814	   -392.88412476	   -331.25346995	  -1115.56202243	      0.00000000	      0.00000000	      0.00000000	   1629.81919175	      4.47319751	    -59.38695947	   -433.50878906	   -339.40374098	   -678.58354333	      0.00000000	      0.00000000	     -0.00000000	  -2632.86964719	      0.00000000	     -0.00000000	      0.00000000	      0.00000000	      0.00000000	      0.00000000	      0.00000000	      0.00000000	      0.00000000
      2.11000000	      0.00000000	     -0.00000000	      0.00000000	      0.00000000	      0.00000000	      0.00000000	      0.00000000	      0.00000000	      0.00000000	      2.90861154	     58.30806351	   -392.58929443	   -332.30978472	  -1114.18872768	      0.00000000	      0.00000000	      0.00000000	   1637.30788745	      4.31180670	    -59.81237831	   -432.18539429	   -339.11746925	   -678.60402073	      0.00000000	      0.00000000	     -0.00000000	  -2375.79071436	      0.00000000	     -0.00000000	      0.00000000	      0.00000000	      0.00000000	      0.00000000	      0.00000000	      0.00000000	      0.00000000
      2.12000000	      0.00000000	     -0.00000000	      0.00000000	      0.00000000	      0.00000000	      0.00000000	      0.00000000	      0.00000000	      0.00000000	      2.87171459	     57.88099670	   -393.16217041	   -332.98735448	  -1114.07981363	      0.00000000	      0.00000000	      0.00000000	   1460.32481139	      4.59643465	    -59.38709681	   -430.70703125	   -339.43269340	   -678.96066261	      0.00000000	      0.00000000	     -0.00000000	  -2468.49149592	      0.00000000	     -0.00000000	      0.00000000	      0.00000000	      0.00000000	      0.00000000	      0.00000000	      0.00000000	      0.00000000
      2.13000000	      0.00000000	     -0.00000000	      0.00000000	      0.00000000	      0.00000000	      0.00000000	      0.00000000	      0.00000000	      0.00000000	      3.42436552	     58.11192703	   -394.22122192	   -333.11301076	  -1114.44726212	      0.00000000	      0.00000000	      0.00000000	   1645.51874809	      4.36524395	    -59.60048714	   -430.70809937	   -339.15873243	   -678.62325853	      0.00000000	      0.00000000	     -0.00000000	  -2418.16494726	      0.00000000	     -0.00000000	      0.00000000	      0.00000000	      0.00000000	      0.00000000	      0.00000000	      0.00000000	      0.00000000
      2.14000000	      0.00000000	     -0.00000000	      0.00000000	      0.00000000	      0.00000000	      0.00000000	      0.00000000	      0.00000000	      0.00000000	      3.06721067	     58.23839951	   -393.22705078	   -333.58167656	  -1114.54969460	      0.00000000	      0.00000000	      0.00000000	   1663.19876462	      4.43687444	    -59.44049874	   -430.36007690	   -340.16061687	   -678.16816082	      0.00000000	      0.00000000	     -0.00000000	  -2497.54163370	      0.00000000	     -0.00000000	      0.00000000	      0.00000000	      0.00000000	      0.00000000	      0.00000000	      0.00000000	      0.00000000
      2.15000000	      0.00000000	     -0.00000000	      0.00000000	      0.00000000	      0.00000000	      0.00000000	      0.00000000	      0.00000000	      0.00000000	      2.39197564	     58.14859009	   -392.73782349	   -333.36455933	  -1114.09607263	      0.00000000	      0.00000000	      0.00000000	   1611.93359366	      4.63111263	    -59.33512919	   -430.57540894	   -340.38548536	   -678.28885894	      0.00000000	      0.00000000	     -0.00000000	  -2409.17774495	      0.00000000	     -0.00000000	      0.00000000	      0.00000000	      0.00000000	      0.00000000	      0.00000000	      0.00000000	      0.00000000
